<svg width="45" height="44" viewBox="0 0 45 44" fill="none" xmlns="http://www.w3.org/2000/svg">
<rect x="0.264343" width="44" height="44" rx="22" fill="#37EF19"/>
<mask id="mask0_5_132" style="mask-type:alpha" maskUnits="userSpaceOnUse" x="10" y="10" width="25" height="24">
<rect x="10.2643" y="10" width="24" height="24" fill="#D9D9D9"/>
</mask>
<g mask="url(#mask0_5_132)">
<path d="M18.2643 28H26.2643V26H18.2643V28ZM18.2643 24H26.2643V22H18.2643V24ZM16.2643 32C15.7143 32 15.2435 31.8042 14.8518 31.4125C14.4602 31.0208 14.2643 30.55 14.2643 30V14C14.2643 13.45 14.4602 12.9792 14.8518 12.5875C15.2435 12.1958 15.7143 12 16.2643 12H24.2643L30.2643 18V30C30.2643 30.55 30.0685 31.0208 29.6768 31.4125C29.2852 31.8042 28.8143 32 28.2643 32H16.2643ZM23.2643 19V14H16.2643V30H28.2643V19H23.2643Z" fill="black"/>
</g>
</svg>
