<svg width="29" height="36" viewBox="0 0 29 36" fill="none" xmlns="http://www.w3.org/2000/svg">
<path d="M14.4158 30.7743C17.9625 27.5162 20.5934 24.5562 22.3085 21.8943C24.0237 19.2325 24.8813 16.8689 24.8813 14.8034C24.8813 11.6325 23.8711 9.03617 21.8507 7.01435C19.8303 4.99254 17.352 3.98163 14.4158 3.98163C11.4797 3.98163 9.00143 4.99254 6.98101 7.01435C4.9606 9.03617 3.9504 11.6325 3.9504 14.8034C3.9504 16.8689 4.80798 19.2325 6.52315 21.8943C8.23832 24.5562 10.8692 27.5162 14.4158 30.7743ZM14.4158 35.3998C9.73546 31.4143 6.23971 27.7125 3.92859 24.2943C1.61747 20.8762 0.461914 17.7125 0.461914 14.8034C0.461914 10.4398 1.86457 6.96344 4.6699 4.37436C7.47522 1.78527 10.7239 0.490723 14.4158 0.490723C18.1078 0.490723 21.3565 1.78527 24.1618 4.37436C26.9671 6.96344 28.3698 10.4398 28.3698 14.8034C28.3698 17.7125 27.2142 20.8762 24.9031 24.2943C22.592 27.7125 19.0962 31.4143 14.4158 35.3998Z" fill="#FFD600"/>
</svg>
