<svg width="18" height="29" viewBox="0 0 18 29" fill="none" xmlns="http://www.w3.org/2000/svg">
    <path d="M0 9.0625C0 4.05742 4.02944 0 9 0C13.9706 0 18 4.05742 18 9.0625V19.9375C18 24.9426 13.9706 29 9 29C4.02944 29 0 24.9426 0 19.9375V9.0625Z" fill="white"/>
    <path d="M14.4 19.9375C14.4 22.9406 11.9823 25.375 9 25.375C6.01766 25.375 3.6 22.9406 3.6 19.9375V19.4808C3.6 17.6971 4.0279 15.9398 4.84729 14.3584L6.6743 10.8323C7.65503 8.93951 10.345 8.93952 11.3257 10.8323L13.1527 14.3584C13.9721 15.9398 14.4 17.6971 14.4 19.4808V19.9375Z" fill="#003A25"/>
    <path d="M7.2 5.4375C7.2 4.43648 8.00589 3.625 9 3.625C9.99411 3.625 10.8 4.43648 10.8 5.4375C10.8 6.43852 9.99411 7.25 9 7.25C8.00589 7.25 7.2 6.43852 7.2 5.4375Z" fill="#003A25"/>
</svg>
